<svg xmlns="http://www.w3.org/2000/svg" style="display:none">
<symbol id="add" viewBox="0 0 24 24" fill="currentColor"><path d="M11 11V5H13V11H19V13H13V19H11V13H5V11H11Z"></path></symbol>
<symbol id="ai" viewBox="0 0 24 24" fill="none">
<path d="M12 4.12017L9.25612 3L5.08537 5.72856V8.73174L3 9.80373V14.1965L5.08537 15.2679V18.2679L9.25612 21L12 19.875" stroke-linecap="round" stroke-linejoin="round"/>
<path d="M14.7439 21L12 19.8798V4.12498L14.7439 3L18.9146 5.7321V8.73206L21 9.80348V14.1963L18.9146 15.2683V18.2714L14.7439 21Z" stroke-linecap="round" stroke-linejoin="round"/>
<path d="M14.7936 9.18167L12 11.1562" stroke-linecap="round" stroke-linejoin="round"/>
<path d="M9.20638 9.18167L12 11.1562" stroke-linecap="round" stroke-linejoin="round"/>
<path d="M5.12256 15.2871L7.20793 16.3591L9.1228 15.2871" stroke-linecap="round" stroke-linejoin="round"/>
<path d="M18.8872 15.2871L16.8018 16.3591L14.887 15.2871" stroke-linecap="round" stroke-linejoin="round"/>
</symbol>
<symbol id="alpinejs" role="img" viewBox="0 0 24 24"><title>Alpine.js</title><path d="m24 12-5.72 5.746-5.724-5.741 5.724-5.75L24 12zM5.72 6.254 0 12l5.72 5.746h11.44L5.72 6.254z"/></symbol>
<symbol id="clipboard" viewBox="0 0 24 24" fill="currentColor"><path d="M17 2V4H20.0066C20.5552 4 21 4.44495 21 4.9934V21.0066C21 21.5552 20.5551 22 20.0066 22H3.9934C3.44476 22 3 21.5551 3 21.0066V4.9934C3 4.44476 3.44495 4 3.9934 4H7V2H17ZM7 6H5V20H19V6H17V8H7V6ZM9 16V18H7V16H9ZM9 13V15H7V13H9ZM9 10V12H7V10H9ZM15 4H9V6H15V4Z"></path></symbol>
<symbol id="close" viewBox="0 0 24 24" fill="currentColor"><path d="M11.9997 10.5865L16.9495 5.63672L18.3637 7.05093L13.4139 12.0007L18.3637 16.9504L16.9495 18.3646L11.9997 13.4149L7.04996 18.3646L5.63574 16.9504L10.5855 12.0007L5.63574 7.05093L7.04996 5.63672L11.9997 10.5865Z"></path></symbol>
<symbol id="dashboard" viewBox="0 0 24 24" fill="currentColor"><path d="M4 13C4 15.2091 4.89543 17.2091 6.34315 18.6569L4.92893 20.0711C3.11929 18.2614 2 15.7614 2 13 2 7.47715 6.47715 3 12 3 17.5228 3 22 7.47715 22 13 22 15.7614 20.8807 18.2614 19.0711 20.0711L17.6569 18.6569C19.1046 17.2091 20 15.2091 20 13 20 8.58172 16.4183 5 12 5 7.58172 5 4 8.58172 4 13ZM8.70703 8.29297 13.207 12.793 11.7928 14.2072 7.29282 9.70718 8.70703 8.29297Z"></path></symbol>
<symbol id="delete" viewBox="0 0 24 24" fill="currentColor"><path d="M17 6H22V8H20V21C20 21.5523 19.5523 22 19 22H5C4.44772 22 4 21.5523 4 21V8H2V6H7V3C7 2.44772 7.44772 2 8 2H16C16.5523 2 17 2.44772 17 3V6ZM18 8H6V20H18V8ZM9 11H11V17H9V11ZM13 11H15V17H13V11ZM9 4V6H15V4H9Z"></path></symbol>
<symbol id="edit" viewBox="0 0 24 24" fill="currentColor"><path d="M18.3644 1.80762C18.6295 1.80769 18.8839 1.91312 19.0714 2.10059L21.8995 4.92871C22.29 5.31919 22.2899 5.95224 21.8995 6.34277L18.2276 10.0146C19.2826 11.3871 20.0766 12.7665 20.5108 14.0059C20.7653 14.7323 20.9135 15.4571 20.8878 16.1279C20.8618 16.8063 20.6529 17.4897 20.1319 18.0107C19.3188 18.8238 18.1404 18.8753 17.0909 18.6602C16.0059 18.4376 14.789 17.885 13.5646 17.1104L14.6339 15.4199C15.7393 16.1193 16.7271 16.5441 17.4933 16.7012C18.2945 16.8654 18.6149 16.6996 18.7179 16.5967C18.7857 16.5288 18.877 16.3822 18.8897 16.0518C18.9027 15.7134 18.8269 15.2486 18.6231 14.667C18.2955 13.732 17.6762 12.6159 16.7999 11.4424L14.8282 13.4141C14.6407 13.6016 14.3864 13.707 14.1212 13.707H11.2931C10.7408 13.707 10.2931 13.2593 10.2931 12.707V9.87891C10.2931 9.61372 10.3985 9.3594 10.586 9.17188L12.4435 7.31348C11.2356 6.6015 10.012 6.19175 8.91026 6.08594C7.51104 5.95164 6.38043 6.30526 5.63584 7.0498C4.77429 7.91135 4.43188 9.30214 4.77354 11.0107C5.11363 12.7112 6.12068 14.605 7.75791 16.2422C9.51568 18 11.5651 19.0286 13.3526 19.29L13.0636 21.2686C10.7846 20.9353 8.35467 19.669 6.34287 17.6572C4.46542 15.7798 3.24029 13.5416 2.8126 11.4033C2.38658 9.2732 2.74022 7.1173 4.22178 5.63574C5.49617 4.3614 7.27806 3.91963 9.10166 4.09473C10.6796 4.24628 12.3422 4.86047 13.8966 5.86035L17.6573 2.10059L17.7306 2.03418C17.9085 1.88844 18.1323 1.80762 18.3644 1.80762ZM12.2931 10.293V11.707H13.7071L19.7784 5.63574L18.3644 4.22168L12.2931 10.293Z"></path></symbol>
<symbol id="filter" viewBox="0 0 24 24" fill="currentColor"><path d="M7 3V6H3V8H7V11H9V3H7ZM11 8H21V6H11V8ZM17 13V16H21V18H17V21H15V13H17ZM13 18H3V16H13V18Z"></path></symbol>
<symbol id="home" viewBox="0 0 24 24" fill="currentColor"><path d="M19 21H5C4.44772 21 4 20.5523 4 20V11L1 11L11.3273 1.6115C11.7087 1.26475 12.2913 1.26475 12.6727 1.6115L23 11L20 11V20C20 20.5523 19.5523 21 19 21ZM6 19H18V9.15745L12 3.7029L6 9.15745V19Z"></path></symbol>
<symbol id="left" viewBox="0 0 24 24" fill="currentColor"><path d="M10.8284 12.0007L15.7782 16.9504L14.364 18.3646L8 12.0007L14.364 5.63672L15.7782 7.05093L10.8284 12.0007Z"></path></symbol>
<symbol id="link" viewBox="0 0 24 24" fill="currentColor"><path d="M18.3638 15.5355L16.9496 14.1213L18.3638 12.7071C20.3164 10.7545 20.3164 7.58866 18.3638 5.63604C16.4112 3.68341 13.2453 3.68341 11.2927 5.63604L9.87849 7.05025L8.46428 5.63604L9.87849 4.22182C12.6122 1.48815 17.0443 1.48815 19.778 4.22182C22.5117 6.95549 22.5117 11.3876 19.778 14.1213L18.3638 15.5355ZM15.5353 18.364L14.1211 19.7782C11.3875 22.5118 6.95531 22.5118 4.22164 19.7782C1.48797 17.0445 1.48797 12.6123 4.22164 9.87868L5.63585 8.46446L7.05007 9.87868L5.63585 11.2929C3.68323 13.2455 3.68323 16.4113 5.63585 18.364C7.58847 20.3166 10.7543 20.3166 12.7069 18.364L14.1211 16.9497L15.5353 18.364ZM14.8282 7.75736L16.2425 9.17157L9.17139 16.2426L7.75717 14.8284L14.8282 7.75736Z"></path></symbol>
<symbol id="right" viewBox="0 0 24 24" fill="currentColor"><path d="M13.1717 12.0007L8.22192 7.05093L9.63614 5.63672L16.0001 12.0007L9.63614 18.3646L8.22192 16.9504L13.1717 12.0007Z"></path></symbol>
<symbol id="search" viewBox="0 0 24 24" fill="currentColor"><path d="M11 2C15.968 2 20 6.032 20 11C20 15.968 15.968 20 11 20C6.032 20 2 15.968 2 11C2 6.032 6.032 2 11 2ZM11 18C14.8675 18 18 14.8675 18 11C18 7.1325 14.8675 4 11 4C7.1325 4 4 7.1325 4 11C4 14.8675 7.1325 18 11 18ZM19.4853 18.0711L22.3137 20.8995L20.8995 22.3137L18.0711 19.4853L19.4853 18.0711Z"></path></symbol>
<symbol id="settings" viewBox="0 0 24 24" fill="currentColor"><path d="M2 11.9998C2 11.1353 2.1097 10.2964 2.31595 9.49631C3.40622 9.55283 4.48848 9.01015 5.0718 7.99982C5.65467 6.99025 5.58406 5.78271 4.99121 4.86701C6.18354 3.69529 7.66832 2.82022 9.32603 2.36133C9.8222 3.33385 10.8333 3.99982 12 3.99982C13.1667 3.99982 14.1778 3.33385 14.674 2.36133C16.3317 2.82022 17.8165 3.69529 19.0088 4.86701C18.4159 5.78271 18.3453 6.99025 18.9282 7.99982C19.5115 9.01015 20.5938 9.55283 21.6841 9.49631C21.8903 10.2964 22 11.1353 22 11.9998C22 12.8643 21.8903 13.7032 21.6841 14.5033C20.5938 14.4468 19.5115 14.9895 18.9282 15.9998C18.3453 17.0094 18.4159 18.2169 19.0088 19.1326C17.8165 20.3043 16.3317 21.1794 14.674 21.6383C14.1778 20.6658 13.1667 19.9998 12 19.9998C10.8333 19.9998 9.8222 20.6658 9.32603 21.6383C7.66832 21.1794 6.18354 20.3043 4.99121 19.1326C5.58406 18.2169 5.65467 17.0094 5.0718 15.9998C4.48848 14.9895 3.40622 14.4468 2.31595 14.5033C2.1097 13.7032 2 12.8643 2 11.9998ZM6.80385 14.9998C7.43395 16.0912 7.61458 17.3459 7.36818 18.5236C7.77597 18.8138 8.21005 19.0652 8.66489 19.2741C9.56176 18.4712 10.7392 17.9998 12 17.9998C13.2608 17.9998 14.4382 18.4712 15.3351 19.2741C15.7899 19.0652 16.224 18.8138 16.6318 18.5236C16.3854 17.3459 16.566 16.0912 17.1962 14.9998C17.8262 13.9085 18.8225 13.1248 19.9655 12.7493C19.9884 12.5015 20 12.2516 20 11.9998C20 11.7481 19.9884 11.4981 19.9655 11.2504C18.8225 10.8749 17.8262 10.0912 17.1962 8.99982C16.566 7.90845 16.3854 6.65378 16.6318 5.47605C16.224 5.18588 15.7899 4.93447 15.3351 4.72552C14.4382 5.52844 13.2608 5.99982 12 5.99982C10.7392 5.99982 9.56176 5.52844 8.66489 4.72552C8.21005 4.93447 7.77597 5.18588 7.36818 5.47605C7.61458 6.65378 7.43395 7.90845 6.80385 8.99982C6.17376 10.0912 5.17754 10.8749 4.03451 11.2504C4.01157 11.4981 4 11.7481 4 11.9998C4 12.2516 4.01157 12.5015 4.03451 12.7493C5.17754 13.1248 6.17376 13.9085 6.80385 14.9998ZM12 14.9998C10.3431 14.9998 9 13.6567 9 11.9998C9 10.343 10.3431 8.99982 12 8.99982C13.6569 8.99982 15 10.343 15 11.9998C15 13.6567 13.6569 14.9998 12 14.9998ZM12 12.9998C12.5523 12.9998 13 12.5521 13 11.9998C13 11.4475 12.5523 10.9998 12 10.9998C11.4477 10.9998 11 11.4475 11 11.9998C11 12.5521 11.4477 12.9998 12 12.9998Z"></path></symbol>
<symbol id="sort" viewBox="0 0 24 24" fill="currentColor"><path d="M10 18H14V16H10V18ZM3 6V8H21V6H3ZM6 13H18V11H6V13Z"></path></symbol>
<symbol id="user" viewBox="0 0 24 24" fill="currentColor"><path d="M11.9999 17C15.6623 17 18.8649 18.5751 20.607 20.9247L18.765 21.796C17.3473 20.1157 14.8473 19 11.9999 19C9.15248 19 6.65252 20.1157 5.23479 21.796L3.39355 20.9238C5.13576 18.5747 8.33796 17 11.9999 17ZM11.9999 2C14.7613 2 16.9999 4.23858 16.9999 7V10C16.9999 12.6888 14.8776 14.8818 12.2168 14.9954L11.9999 15C9.23847 15 6.9999 12.7614 6.9999 10V7C6.9999 4.31125 9.1222 2.11818 11.783 2.00462L11.9999 2ZM11.9999 4C10.4022 4 9.09623 5.24892 9.00499 6.82373L8.9999 7V10C8.9999 11.6569 10.343 13 11.9999 13C13.5976 13 14.9036 11.7511 14.9948 10.1763L14.9999 10V7C14.9999 5.34315 13.6567 4 11.9999 4Z"></path></symbol>
</svg>